<svg xmlns="http://www.w3.org/2000/svg" width="20" height="20" viewBox="0 0 20 20">
    <path fill="#C5C5C5" fill-rule="evenodd" d="M15.246 7.083H12.5A2.084 2.084 0 0 1 10.417 5V2.254c0-.37.45-.554.712-.292l4.409 4.409a.417.417 0 0 1-.292.712zm1.646-1.858L12.275.608A2.081 2.081 0 0 0 10.805 0H4.582C3.433 0 2.5.933 2.5 2.083v15.834c0 1.15.933 2.083 2.083 2.083h10.834c1.15 0 2.083-.933 2.083-2.083V6.696c0-.554-.22-1.083-.608-1.471zm-7.303 7.51c.145.323.31.616.498.88.187.263.39.488.612.675l.293.23c-.314.06-.682.142-1.103.248-.42.107-.86.249-1.32.427l-.077.026.357-.752c.162-.315.304-.616.428-.905.123-.29.227-.565.312-.829zm4.694 2.754a.571.571 0 0 0 .153-.21.666.666 0 0 0 .051-.262.466.466 0 0 0 0-.217.442.442 0 0 0-.089-.178c-.102-.17-.29-.298-.561-.383-.272-.085-.634-.127-1.084-.127l-.944.05-.625-.42a3.067 3.067 0 0 1-.644-.758 5.51 5.51 0 0 1-.517-1.09l.025-.102c.12-.485.207-.982.262-1.492.055-.51-.036-.884-.274-1.122a.587.587 0 0 0-.204-.133A.663.663 0 0 0 9.589 9h-.166c-.136 0-.259.06-.37.178a.769.769 0 0 0-.204.383c-.136.484-.178.89-.127 1.217.051.328.144.712.28 1.154v.013c-.084.314-.19.652-.318 1.013-.128.361-.28.729-.46 1.103l-.701 1.313-.65.357c-.434.272-.76.548-.976.828-.217.28-.343.515-.377.702a.637.637 0 0 0 .026.395l.025.038.345.217.319.089c.297 0 .618-.178.963-.535.344-.357.742-.923 1.192-1.696l.14-.05c.375-.12.8-.222 1.276-.307a31.174 31.174 0 0 1 1.646-.242 5.05 5.05 0 0 0 1.16.414c.4.09.74.134 1.02.134.154 0 .286-.019.396-.057a.534.534 0 0 0 .255-.172zm-.293-.51l.064.076c0 .043-.007.068-.02.077a.417.417 0 0 1-.044.025h-.026l-.14.013c-.17 0-.376-.034-.619-.102a6.541 6.541 0 0 1-.759-.268.286.286 0 0 1 .083-.063.227.227 0 0 1 .083-.013c.51 0 .86.034 1.046.102.187.068.298.119.332.153zm-6.658 1.058c-.23.433-.451.769-.664 1.007-.212.238-.4.387-.56.446.016-.136.103-.316.26-.542.158-.225.364-.452.62-.682l.344-.23zm2.194-5.01a3.705 3.705 0 0 1-.134-.873c-.005-.26.023-.466.082-.619l.052-.076.114.025c.06.094.094.202.102.325.009.124-.004.283-.038.479l-.025.114-.115.6-.038.025z"/>
</svg>
