<?xml version="1.0" encoding="UTF-8"?>
<svg width="20px" height="20px" viewBox="0 0 20 20" version="1.1" xmlns="http://www.w3.org/2000/svg" xmlns:xlink="http://www.w3.org/1999/xlink">
    <!-- Generator: Sketch 52.5 (67469) - http://www.bohemiancoding.com/sketch -->
    <title>Icon/Hide_Gray</title>
    <desc>Created with Sketch.</desc>
    <g id="Icon/Hide_Gray" stroke="none" stroke-width="1" fill="none" fill-rule="evenodd">
        <g id="Icon/View/Gray" transform="translate(0.000000, 3.000000)">
            <path d="M10.1391837,10.5228571 C8.11061224,10.5228571 6.46571429,8.87795918 6.46571429,6.84938776 C6.46571429,4.82081633 8.11061224,3.17591837 10.1391837,3.17591837 C12.1677551,3.17591837 13.8126531,4.82081633 13.8126531,6.84938776 C13.8126531,8.87795918 12.1677551,10.5228571 10.1391837,10.5228571 Z M19.7228571,6.30244898 C13.335102,-0.587346939 6.94326531,-0.587346939 0.555510204,6.30244898 C0.273877551,6.61265306 0.273877551,7.08612245 0.555510204,7.39632653 C6.94326531,14.2861224 13.335102,14.2861224 19.7228571,7.39632653 C20.0044898,7.08612245 20.0044898,6.61265306 19.7228571,6.30244898 Z" id="Fill-242" fill="#C5C5C5"></path>
            <path d="M12.18,6.84938776 C12.18,7.97632653 11.2661224,8.89020408 10.1391837,8.89020408 C9.0122449,8.89020408 8.09836735,7.97632653 8.09836735,6.84938776 C8.09836735,5.72244898 9.0122449,4.80857143 10.1391837,4.80857143 C11.2661224,4.80857143 12.18,5.72244898 12.18,6.84938776" id="Fill-243" fill="#C5C5C5"></path>
            <path d="M3,0 L17.4064043,13.8728337" id="Line-3" stroke="#C5C5C5" stroke-width="1.5" stroke-linecap="round"></path>
        </g>
    </g>
</svg>