<svg xmlns="http://www.w3.org/2000/svg" width="20" height="20" viewBox="0 0 20 20">
    <path fill="#C5C5C5" fill-rule="evenodd" d="M15.246 7.083H12.5A2.084 2.084 0 0 1 10.417 5V2.254c0-.37.45-.554.712-.292l4.409 4.409a.417.417 0 0 1-.292.712zm1.646-1.858c.387.388.608.917.608 1.47v11.222c0 1.15-.933 2.083-2.083 2.083H4.583A2.084 2.084 0 0 1 2.5 17.917V2.083C2.5.933 3.433 0 4.583 0h6.221c.554 0 1.083.22 1.471.608l4.617 4.617zM7.07 10v7h1.78v-1.97h1.27c1.79 0 2.82-.95 2.82-2.59 0-1.56-1.03-2.44-2.82-2.44H7.07zm1.78 1.4h1.18c.78 0 1.23.37 1.23 1.1 0 .74-.45 1.13-1.23 1.13H8.85V11.4z"/>
</svg>
