<?xml version="1.0" encoding="UTF-8"?>
<svg width="16px" height="20px" viewBox="0 0 16 20" version="1.1" xmlns="http://www.w3.org/2000/svg" xmlns:xlink="http://www.w3.org/1999/xlink">
    <!-- Generator: Sketch 52.5 (67469) - http://www.bohemiancoding.com/sketch -->
    <title>portrait-gray</title>
    <desc>Created with Sketch.</desc>
    <g id="Page-1" stroke="none" stroke-width="1" fill="none" fill-rule="evenodd">
        <g id="portrait-gray" fill="#1598CB">
            <path d="M13.246,7.083 L10.5,7.083 C9.3498195,7.08244822 8.41755178,6.1501805 8.417,5 L8.417,2.254 C8.417,1.884 8.867,1.7 9.129,1.962 L13.538,6.371 C13.6569965,6.48987923 13.6929202,6.66861176 13.6290967,6.82423629 C13.5652732,6.97986082 13.4142,7.0819036 13.246,7.083 Z M14.892,5.225 C15.279,5.613 15.5,6.142 15.5,6.695 L15.5,17.917 C15.5,19.067 14.567,20 13.417,20 L2.583,20 C1.4328195,19.9994482 0.500551778,19.0671805 0.5,17.917 L0.5,2.083 C0.5,0.933 1.433,0 2.583,0 L8.804,0 C9.358,0 9.887,0.22 10.275,0.608 L14.892,5.225 Z M5.07,10 L5.07,17 L6.85,17 L6.85,15.03 L8.12,15.03 C9.91,15.03 10.94,14.08 10.94,12.44 C10.94,10.88 9.91,10 8.12,10 L5.07,10 Z M6.85,11.4 L8.03,11.4 C8.81,11.4 9.26,11.77 9.26,12.5 C9.26,13.24 8.81,13.63 8.03,13.63 L6.85,13.63 L6.85,11.4 Z" id="Shape"></path>
        </g>
    </g>
</svg>