<?xml version="1.0" encoding="UTF-8"?>
<svg width="20px" height="20px" viewBox="0 0 20 20" version="1.1" xmlns="http://www.w3.org/2000/svg" xmlns:xlink="http://www.w3.org/1999/xlink">
    <!-- Generator: Sketch 52.5 (67469) - http://www.bohemiancoding.com/sketch -->
    <title>Icon/View_Gray</title>
    <desc>Created with Sketch.</desc>
    <g id="Icon/View_Gray" stroke="none" stroke-width="1" fill="none" fill-rule="evenodd">
        <g id="Icon/View/Gray" transform="translate(0.000000, 4.000000)" fill="#C5C5C5">
            <path d="M10.1391837,9.52285714 C8.11061224,9.52285714 6.46571429,7.87795918 6.46571429,5.84938776 C6.46571429,3.82081633 8.11061224,2.17591837 10.1391837,2.17591837 C12.1677551,2.17591837 13.8126531,3.82081633 13.8126531,5.84938776 C13.8126531,7.87795918 12.1677551,9.52285714 10.1391837,9.52285714 Z M19.7228571,5.30244898 C13.335102,-1.58734694 6.94326531,-1.58734694 0.555510204,5.30244898 C0.273877551,5.61265306 0.273877551,6.08612245 0.555510204,6.39632653 C6.94326531,13.2861224 13.335102,13.2861224 19.7228571,6.39632653 C20.0044898,6.08612245 20.0044898,5.61265306 19.7228571,5.30244898 Z" id="Fill-242"></path>
            <path d="M12.18,5.84938776 C12.18,6.97632653 11.2661224,7.89020408 10.1391837,7.89020408 C9.0122449,7.89020408 8.09836735,6.97632653 8.09836735,5.84938776 C8.09836735,4.72244898 9.0122449,3.80857143 10.1391837,3.80857143 C11.2661224,3.80857143 12.18,4.72244898 12.18,5.84938776" id="Fill-243"></path>
        </g>
    </g>
</svg>