<?xml version="1.0" encoding="UTF-8"?>
<svg width="38px" height="38px" viewBox="0 0 38 38" version="1.1" xmlns="http://www.w3.org/2000/svg" xmlns:xlink="http://www.w3.org/1999/xlink">
    <!-- Generator: Sketch 52.5 (67469) - http://www.bohemiancoding.com/sketch -->
    <title>Icon/Add/White</title>
    <desc>Created with Sketch.</desc>
    <defs>
        <path d="M20.0625,16.125 L16.125,16.125 L16.125,20.0625 C16.125,20.68125 15.61875,21.1875 15,21.1875 C14.38125,21.1875 13.875,20.68125 13.875,20.0625 L13.875,16.125 L9.9375,16.125 C9.31875,16.125 8.8125,15.61875 8.8125,15 C8.8125,14.38125 9.31875,13.875 9.9375,13.875 L13.875,13.875 L13.875,9.9375 C13.875,9.31875 14.38125,8.8125 15,8.8125 C15.61875,8.8125 16.125,9.31875 16.125,9.9375 L16.125,13.875 L20.0625,13.875 C20.68125,13.875 21.1875,14.38125 21.1875,15 C21.1875,15.61875 20.68125,16.125 20.0625,16.125 Z M15,1.5 C7.546875,1.5 1.5,7.546875 1.5,15 C1.5,22.453125 7.546875,28.5 15,28.5 C22.453125,28.5 28.5,22.453125 28.5,15 C28.5,7.546875 22.453125,1.5 15,1.5 Z" id="path-1"></path>
        <filter x="-37.0%" y="-29.6%" width="174.1%" height="174.1%" filterUnits="objectBoundingBox" id="filter-2">
            <feOffset dx="0" dy="2" in="SourceAlpha" result="shadowOffsetOuter1"></feOffset>
            <feGaussianBlur stdDeviation="3" in="shadowOffsetOuter1" result="shadowBlurOuter1"></feGaussianBlur>
            <feColorMatrix values="0 0 0 0 0.254901961   0 0 0 0 0.250980392   0 0 0 0 0.258823529  0 0 0 0.2 0" type="matrix" in="shadowBlurOuter1"></feColorMatrix>
        </filter>
    </defs>
    <g id="Symbols" stroke="none" stroke-width="1" fill="none" fill-rule="evenodd">
        <g id="Header/Preview" transform="translate(-980.000000, -23.000000)">
            <g id="Icon/Add_White" transform="translate(984.000000, 25.000000)">
                <g id="Icon/Add">
                    <use fill="black" fill-opacity="1" filter="url(#filter-2)" xlink:href="#path-1"></use>
                    <use fill="#FFFFFF" fill-rule="evenodd" xlink:href="#path-1"></use>
                </g>
            </g>
        </g>
    </g>
</svg>