<svg xmlns="http://www.w3.org/2000/svg" width="8" height="12" viewBox="0 0 8 12">
    <path fill="#C5C5C5" fill-rule="evenodd" d="M6.798 4.542H5.333c-.613 0-1.11-.467-1.11-1.042V2.127c0-.185.24-.277.38-.146l2.35 2.204c.14.132.043.357-.155.357zm.878-.93c.206.194.324.459.324.736v5.61C8 10.533 7.502 11 6.889 11H1.11C.498 11 0 10.533 0 9.958V2.042C0 1.467.498 1 1.111 1H4.43c.295 0 .578.11.784.304l2.463 2.308zM3.512 7.248c0-.248.084-.362.264-.362.147 0 .216.06.216.192 0 .353-.538.427-.538 1.11h.816c0-.482.734-.615.734-1.28 0-.526-.416-.833-1.125-.833-.763 0-1.207.435-1.207 1.173h.84zm.333 1.182c-.293 0-.499.193-.499.468 0 .28.206.472.499.472.298 0 .503-.192.503-.472 0-.275-.205-.468-.503-.468z"/>
</svg>
