<svg xmlns="http://www.w3.org/2000/svg" width="20" height="20" viewBox="0 0 20 20">
    <g fill="#C5C5C5" fill-rule="evenodd">
        <path d="M12.089 4.142A3.489 3.489 0 1 1 5.11 4.14a3.489 3.489 0 0 1 6.978 0M8.368 14.607c0 .567.068 1.116.196 1.646.143.587-.325 1.145-.928 1.145H3.107c-.948 0-1.716-.782-1.716-1.745 0-3.66 3.228-6.627 7.21-6.627.125 0 .25.004.373.009a.935.935 0 0 1 .713 1.493 6.917 6.917 0 0 0-1.32 4.079M14.017 9.924c2.399 0 4.342 1.981 4.342 4.427 0 2.445-1.943 4.426-4.342 4.426-2.398 0-4.34-1.98-4.34-4.426s1.942-4.427 4.34-4.427zm0 1.476c-1.599 0-2.894 1.32-2.894 2.95 0 1.631 1.295 2.952 2.894 2.952 1.6 0 2.894-1.32 2.894-2.951 0-1.63-1.295-2.951-2.894-2.951z"/>
        <path d="M17.053 17.33l1.306 1.33a.712.712 0 0 1 0 .997l-.027.027a.712.712 0 0 1-1.016 0l-1.305-1.331a.712.712 0 0 1 0-.997l.026-.027a.712.712 0 0 1 1.016 0z"/>
    </g>
</svg>
