<svg xmlns="http://www.w3.org/2000/svg" width="48" height="48" viewBox="0 0 48 48">
    <g fill="none" fill-rule="evenodd">
        <g fill="#C5C5C5">
            <path d="M27.661 38.593l-1.948-2.927a1.977 1.977 0 0 1-.33-.97l-.673-9.833c-.358-5.21-4.62-9.539-10.065-9.845C8.72 14.685 3.698 18.99 3.31 24.585l-.694 10.11a1.977 1.977 0 0 1-.33.97L.338 38.594c-.91 1.371.122 3.164 1.82 3.164H25.85c1.69 0 2.722-1.793 1.812-3.164M16.578 44.432c1.162 0 1.862 1.01 1.274 1.81C17.077 47.294 15.639 48 14 48c-1.64 0-3.077-.706-3.852-1.758-.588-.8.112-1.81 1.274-1.81h5.156"/>
        </g>
        <circle cx="37" cy="11" r="11" fill="#F47A64"/>
    </g>
</svg>
