<svg xmlns="http://www.w3.org/2000/svg" width="48" height="48" viewBox="0 0 48 48">
    <path fill="#C5C5C5" fill-rule="evenodd" d="M30.632 37.417c0 1.054-.853 1.916-1.895 1.916s-1.895-.862-1.895-1.916V18.25c0-1.054.853-1.917 1.895-1.917s1.895.863 1.895 1.917v19.167zm-9.474 0c0 1.054-.853 1.916-1.895 1.916s-1.895-.862-1.895-1.916V18.25c0-1.054.853-1.917 1.895-1.917s1.895.863 1.895 1.917v19.167zm18-31.625H28.737C28.737 3.147 26.615 1 24 1s-4.737 2.147-4.737 4.792H8.843C7.268 5.792 6 7.076 6 8.667c0 1.59 1.27 2.875 2.842 2.875l1.649 30.925c.142 2.54 2.216 4.533 4.736 4.533h17.546c2.52 0 4.594-1.993 4.736-4.533l1.649-30.925c1.573 0 2.842-1.284 2.842-2.875s-1.27-2.875-2.842-2.875z"/>
</svg>
