<?xml version="1.0" encoding="utf-8"?>
<!-- Generator: Adobe Illustrator 16.0.0, SVG Export Plug-In . SVG Version: 6.00 Build 0)  -->
<!DOCTYPE svg PUBLIC "-//W3C//DTD SVG 1.1//EN" "http://www.w3.org/Graphics/SVG/1.1/DTD/svg11.dtd">
<svg version="1.1" id="Layer_1" xmlns="http://www.w3.org/2000/svg" xmlns:xlink="http://www.w3.org/1999/xlink" x="0px" y="0px"
	 width="10px" height="48px" viewBox="0 0 10 48" enable-background="new 0 0 10 48" xml:space="preserve">
<g>
	<path fill="#FFFFFF" d="M4.8,0c2.651,0,4.8,2.149,4.8,4.8c0,2.651-2.148,4.8-4.8,4.8l0,0C2.149,9.6,0,7.451,0,4.8
		C0,2.149,2.149,0,4.8,0z M4.8,19.2c2.651,0,4.8,2.149,4.8,4.8c0,2.65-2.148,4.8-4.8,4.8l0,0C2.149,28.8,0,26.65,0,24
		C0,21.349,2.149,19.2,4.8,19.2z M4.8,38.4c2.651-0.002,4.802,2.146,4.804,4.797c0.001,2.65-2.146,4.801-4.798,4.803
		c-0.002,0-0.004,0-0.006,0c-2.651-0.002-4.798-2.152-4.797-4.803C0.004,40.549,2.151,38.401,4.8,38.4z"/>
</g>
</svg>
