<svg xmlns="http://www.w3.org/2000/svg" width="203" height="54" viewBox="0 0 203 54">
    <defs>
        <filter id="a" width="112.3%" height="151.1%" x="-6.1%" y="-25.6%" filterUnits="objectBoundingBox">
            <feOffset in="SourceAlpha" result="shadowOffsetOuter1"/>
            <feGaussianBlur in="shadowOffsetOuter1" result="shadowBlurOuter1" stdDeviation="6"/>
            <feColorMatrix in="shadowBlurOuter1" result="shadowMatrixOuter1" values="0 0 0 0 0.254901961 0 0 0 0 0.250980392 0 0 0 0 0.258823529 0 0 0 0.2 0"/>
            <feMerge>
                <feMergeNode in="shadowMatrixOuter1"/>
                <feMergeNode in="SourceGraphic"/>
            </feMerge>
        </filter>
    </defs>
    <g fill="none" fill-rule="evenodd" filter="url(#a)" transform="translate(-8 -30)">
        <path d="M20 42.246h29.703V72H20z"/>
        <path fill="#258EB9" d="M21.467 63.568c.06.125.123.25.186.374 5.856-6.746 15.25-14.072 26.078-14.288a10.196 10.196 0 0 0-.762-1.21 14.613 14.613 0 0 0-.59-.766c-4.693.71-16.544 3.675-24.912 15.89"/>
        <path fill="#258EB9" d="M42.82 44.536c-4.974-3.131-11.553-3.134-16.62.506-5.8 4.163-7.711 11.727-4.966 18.017 3.924-6.784 11.033-16.015 21.585-18.523M21.97 64.522c.062.105.122.211.187.316 6.227-5.058 16.34-11.163 27.464-9.893-.102-.765-.259-1.36-.485-2.108-6.028-.21-16.935 1.534-27.166 11.685"/>
        <path fill="#258EB9" d="M22.325 65.106c.15.235.305.467.471.696 4.795 6.673 14.093 8.196 20.77 3.402a14.838 14.838 0 0 0 6.137-10.735c-5.898-.749-16.875-.76-27.378 6.637"/>
        <path fill="#343534" d="M58.587 49.5h2.569l-.002 12.628c-.034-.003 4.995.003 4.995.003.542 1 1.417 2.064 2.085 2.369h-9.647v-15M79.484 57.233c0-3.395-1.948-6.256-5.161-6.256-2.627 0-4.496 2.08-4.478 5.57 0 3.623 1.932 6.456 5.202 6.456 1.833 0 4.437-1.27 4.437-5.77zm-12.322-.115c0-3.814 2.505-7.618 7.608-7.618 4.554 0 7.398 3.251 7.398 7.142 0 4.386-2.817 7.858-7.617 7.858-5.16 0-7.39-3.987-7.39-7.382zM86.973 56.796c0 .158.01.192.073.204h2.134c.525 0 .844-.046 1.057-.204.642-.495 1.264-1.347 1.264-2.655 0-2.1-1.445-3.163-3.233-3.163h-1.186c-.07.003-.108.01-.108.125v5.693zM84.311 49.5l4.12.005c1.574 0 2.817.217 3.633.713a3.821 3.821 0 0 1 1.846 3.309c0 1.664-.875 3.073-2.41 4.103 1.166 1.665 2.526 3.604 3.809 5.05.874.991 1.457 1.463 1.865 1.662-.33.118-1.108.158-1.73.158-1.165 0-1.729-.234-2.428-.947-.643-.585-2.916-3.895-3.694-4.934a.253.253 0 0 0-.233-.139l-2.038-.002c-.058 0-.078.04-.078.12V64.5h-2.662v-15zM98.246 49.5h2.143v15h-2.141l-.002-15M103.605 64.5V50.61c0-1.03.058-1.11.174-1.11.116 0 .224.103.66.515 2.125 2.177 9.385 9.085 9.385 9.085v-9.6h2.643v13.775c0 1.276-.047 1.225-.235 1.225-.251 0-9.98-9.416-9.98-9.416l-.004 9.416h-2.643M132.543 63.682c-1.09.44-3.14.818-4.775.818-2.762 0-5.05-.938-6.468-2.717-.945-1.167-1.617-2.812-1.617-4.898 0-3.157 1.526-5.032 3.016-6.008 1.871-1.3 3.943-1.377 5.233-1.377 1.628 0 3.912.538 4.613 1.118v2.584c-1.469-1.568-3.006-2.224-5.052-2.224-1.545 0-2.85.588-3.759 1.487-.872.88-1.49 2.294-1.49 3.997 0 1.779.582 3.197 1.272 4.04 1.154 1.718 2.833 2.533 4.623 2.518.673-.006 1.462-.213 1.843-.444V57h2.561v6.682M188.776 57.925v4.82c0 .235.1.286.25.277h1.46c1.436 0 3.182-.203 4.249-1.213 1.027-.971 1.628-2.596 1.628-4.438 0-1.526-.29-2.953-1.221-4.201-1.183-1.546-2.891-2.215-5.082-2.192h-1.096c-.125 0-.188.082-.188.226v6.721zm-2.634-8.425l3.61.005c2.908.02 5.564.435 7.406 2.338.97 1.01 1.842 2.655 1.842 5.013 0 2.476-.989 4.358-2.094 5.508-1.028 1.05-2.71 2.136-6.18 2.136h-4.588l.004-15zM141.856 49.5l3.422 9.514 3.887-8.416c.277-.595.314-.778.446-.778.126 0 .227.269.42.73l4.073 8.905 4.277-9.955h2.032l-5.98 13.808c-.247.646-.452 1.192-.634 1.192-.18 0-.568-1-.568-1l-3.987-8.7-3.91 8.55c-.38.898-.646 1.15-.784 1.15-.113 0-.293-.395-.679-1.336L138.976 49.5h2.88M165.505 58.498c.06 0 .08-.02.06-.08l-1.876-4.057-1.78 4.057c-.008.022-.046.08.047.08h3.55zm-4.171 1.45c-.06 0-.08.02-.1.059l-1.979 4.493h-2.057l6.11-13.991c.35-.836.526-1.009.666-1.009.12 0 .33.11.711 1.04l6.447 13.96h-2.761l-2.075-4.464c-.02-.04-.057-.059-.117-.059l-4.845-.03zM174.865 56.796c0 .158.01.192.073.204h2.134c.525 0 .844-.046 1.058-.204.64-.495 1.262-1.347 1.262-2.655 0-2.1-1.445-3.163-3.232-3.163h-1.186c-.07.003-.109.01-.109.125v5.693zm-2.661-7.296l4.119.005c1.573 0 2.817.217 3.633.713a3.821 3.821 0 0 1 1.846 3.309c0 1.664-.875 3.073-2.41 4.103 1.166 1.665 2.526 3.604 3.809 5.05.874.991 1.456 1.463 1.865 1.662-.33.118-1.108.158-1.73.158-1.165 0-1.728-.234-2.428-.947-.643-.585-2.917-3.895-3.694-4.934a.253.253 0 0 0-.233-.139l-2.038-.002c-.058 0-.078.04-.078.12V64.5h-2.661v-15z"/>
    </g>
</svg>
