<svg xmlns="http://www.w3.org/2000/svg" width="20" height="20" viewBox="0 0 20 20">
    <path fill="#C5C5C5" fill-rule="evenodd" d="M14.024 14.714H8.12c-.789 0-1.415-.703-1.273-1.478C7.184 11.4 8.946 10 11.07 10c2.126 0 3.888 1.401 4.226 3.236.142.775-.484 1.478-1.273 1.478zm-2.953-9.428c1.068 0 1.929.861 1.929 1.928a1.926 1.926 0 0 1-1.929 1.929 1.926 1.926 0 0 1-1.928-1.929c0-1.067.861-1.928 1.928-1.928zM16.857 1H5.286c-1.183 0-2.143.96-2.143 2.143V4h-.857C1.574 4 1 4.574 1 5.286c0 .711.574 1.285 1.286 1.285h.857v2.143h-.857C1.574 8.714 1 9.29 1 10c0 .711.574 1.286 1.286 1.286h.857v2.143h-.857c-.712 0-1.286.574-1.286 1.285C1 15.426 1.574 16 2.286 16h.857v.857c0 1.183.96 2.143 2.143 2.143h11.571C18.04 19 19 18.04 19 16.857V3.143C19 1.96 18.04 1 16.857 1z"/>
</svg>
