<svg xmlns="http://www.w3.org/2000/svg" width="172" height="44" viewBox="0 0 172 44">
    <g fill="none" fill-rule="evenodd">
        <path fill="#636466" fill-rule="nonzero" d="M52.172 11.473c0-5.918 3.478-10.736 10.99-10.736 7.512 0 10.99 4.818 10.99 10.736v21.593c0 5.918-3.478 10.736-10.99 10.736-7.512 0-10.99-4.818-10.99-10.736V11.473zm7.187 21.417c0 3.135.929 4.642 3.847 4.642s3.847-1.507 3.847-4.642V11.654c0-3.134-.93-4.641-3.847-4.641-2.918 0-3.847 1.507-3.847 4.642V32.89zM86.907 43.219h-7.194V1.32h10.09c8.061 0 12.177 3.426 12.177 12.364 0 6.732-2.61 9.46-5.045 10.56l6.09 18.98h-7.31L90.61 25.872c-1.232.125-2.47.184-3.709.176l.006 17.171zm0-23.1h2.55c3.885 0 5.335-1.452 5.335-6.44 0-4.989-1.45-6.425-5.336-6.425h-2.55V20.12z"/>
        <path fill="#636466" d="M108.245 43.219V1.32h7.187v41.899z"/>
        <path fill="#636466" fill-rule="nonzero" d="M121.928 11.473c0-5.918 3.478-10.736 10.99-10.736 7.512 0 10.99 4.818 10.99 10.736v21.593c0 5.918-3.478 10.736-10.99 10.736-7.512 0-10.99-4.818-10.99-10.736V11.473zm7.187 21.417c0 3.135.93 4.642 3.847 4.642 2.918 0 3.847-1.507 3.847-4.642V11.654c0-3.134-.929-4.641-3.847-4.641s-3.847 1.507-3.847 4.642V32.89z"/>
        <path fill="#636466" d="M149.475 43.219V1.32h6.666l8.754 23.969h.137V1.32h6.495v41.899h-6.264l-9.183-26.175h-.115V43.22z"/>
        <path fill="#00AEEF" d="M25.718 17.259l1.62-16.143a1.149 1.149 0 0 0-1.098-1.1h-6.375a1.144 1.144 0 0 0-1.099 1.1l1.649 16.149a.896.896 0 0 0 .868.692.774.774 0 0 0 .16 0 5.754 5.754 0 0 1 3.296 0 .796.796 0 0 0 .16 0 .89.89 0 0 0 .819-.698zM18.8 18.392L3.961 11.858a1.154 1.154 0 0 0-1.412.715l-1.968 6.05c-.171.59.147 1.21.726 1.413l15.848 3.449a.896.896 0 0 0 .934-.61c.015-.053.026-.106.033-.16.006-.561.1-1.118.28-1.65a5.238 5.238 0 0 1 .737-1.49c0-.05.05-.1.066-.149a.897.897 0 0 0-.407-1.034zM17.684 25.404L6.89 37.505a1.156 1.156 0 0 0 .242 1.563l5.132 3.723c.505.344 1.19.233 1.56-.253l8.189-14.014a.886.886 0 0 0-.297-1.072.55.55 0 0 0-.137-.078 5.781 5.781 0 0 1-2.671-1.941 1.05 1.05 0 0 0-.12-.104.89.89 0 0 0-1.105.076zM24.042 28.561l8.165 14.009c.37.486 1.056.597 1.561.253l5.144-3.74c.491-.375.6-1.07.247-1.578l-10.804-12.1a.895.895 0 0 0-1.099-.05.704.704 0 0 0-.115.104 5.76 5.76 0 0 1-2.676 1.953l-.138.077a.897.897 0 0 0-.285 1.072zM28.987 23.463l15.837-3.448c.574-.206.89-.823.72-1.409l-1.956-6.05a1.154 1.154 0 0 0-1.418-.714l-14.837 6.533a.897.897 0 0 0-.39 1.04c0 .055.044.105.066.149.323.46.574.969.742 1.506a5.4 5.4 0 0 1 .28 1.65.666.666 0 0 0 .033.155.89.89 0 0 0 .923.588z"/>
    </g>
</svg>
