<svg xmlns="http://www.w3.org/2000/svg" width="20" height="20" viewBox="0 0 20 20">
    <g fill="#C5C5C5" fill-rule="evenodd">
        <path d="M10.592 5.372c2.16.355 3.94 2.378 4.252 3.878h3.948c-.348-3.75-3.88-7.592-8.2-8v4.122zM6.647 12.912c-.623-.803-1.258-1.813-1.258-2.913 0-2.385 1.603-4.357 3.763-4.662V1.24c-4.32.323-7.683 4.124-7.683 8.76 0 2.225.943 4.254 2.273 5.804l2.905-2.891zM14.844 10.75c-.355 2.25-2.265 3.958-4.566 3.958a4.549 4.549 0 0 1-2.56-.79l-2.804 2.92a8.361 8.361 0 0 0 5.364 1.954c4.469 0 8.142-3.542 8.514-8.042h-3.948z"/>
    </g>
</svg>
