<?xml version="1.0" encoding="utf-8"?>
<!-- Generator: Adobe Illustrator 16.0.0, SVG Export Plug-In . SVG Version: 6.00 Build 0)  -->
<!DOCTYPE svg PUBLIC "-//W3C//DTD SVG 1.1//EN" "http://www.w3.org/Graphics/SVG/1.1/DTD/svg11.dtd">
<svg version="1.1" id="Layer_1" xmlns="http://www.w3.org/2000/svg" xmlns:xlink="http://www.w3.org/1999/xlink" x="0px" y="0px"
	 width="18px" height="19px" viewBox="0 0 18 19" enable-background="new 0 0 18 19" xml:space="preserve">
<path fill="#FFFFFF" d="M1.5,7.969C1.504,4.674,4.175,2.003,7.47,2c3.295,0.004,5.965,2.674,5.969,5.969
	c-0.004,3.296-2.676,5.966-5.971,5.969C4.174,13.934,1.503,11.264,1.5,7.969L1.5,7.969z M17.779,17.219l-4.526-4.527
	c2.609-3.194,2.135-7.899-1.06-10.509c-3.195-2.609-7.9-2.135-10.51,1.06s-2.135,7.9,1.06,10.509c2.75,2.246,6.7,2.246,9.45,0
	l4.525,4.529c0.295,0.291,0.769,0.291,1.063,0c0.293-0.293,0.293-0.768,0-1.062L17.779,17.219z"/>
</svg>
