<svg xmlns="http://www.w3.org/2000/svg" width="48" height="48" viewBox="0 0 48 48">
    <path fill="#C5C5C5" fill-rule="evenodd" d="M23.734 33a9 9 0 1 1 .002-18.001A9 9 0 0 1 23.734 33zm21.73-3.38l-1.45-.84a2 2 0 0 1-.98-2c.13-.91.2-1.83.2-2.78 0-.95-.07-1.87-.2-2.78-.11-.81.27-1.59 1.17-2.11l1.26-.73c.84-.48 1.21-1.49.89-2.4-.43-1.24-.98-2.43-1.61-3.57a23.431 23.431 0 0 0-2.76-3.99c-.63-.74-1.69-.91-2.71-.32l-1.28.74c-.7.41-1.58.35-2.22-.15a19.195 19.195 0 0 0-4.81-2.79 1.98 1.98 0 0 1-1.23-1.84V2.37c0-.97-.69-1.8-1.64-1.98-1.42-.26-2.87-.39-4.36-.39-1.49 0-2.94.13-4.36.39-.95.18-1.64 1.01-1.64 1.98v1.69c0 .8-.48 1.54-1.23 1.84-1.75.7-3.36 1.64-4.81 2.79-.64.5-1.52.56-2.22.15l-1.46-.85c-.84-.48-1.9-.31-2.53.43a23.431 23.431 0 0 0-2.76 3.99c-.63 1.14-1.18 2.33-1.61 3.57-.32.91.05 1.92.89 2.4l1.45.84a2 2 0 0 1 .98 2c-.13.91-.2 1.83-.2 2.78 0 .95.07 1.87.2 2.78a2 2 0 0 1-.98 2l-1.45.84c-.84.48-1.21 1.49-.89 2.4.43 1.24.98 2.43 1.61 3.57a23.431 23.431 0 0 0 2.76 3.99c.63.74 1.69.91 2.53.43l1.46-.85c.7-.41 1.58-.35 2.22.15 1.45 1.15 3.06 2.09 4.81 2.79.75.3 1.23 1.04 1.23 1.84v1.69c0 .97.69 1.8 1.64 1.98 1.42.26 2.87.39 4.36.39 1.49 0 2.94-.13 4.36-.39.95-.18 1.64-1.01 1.64-1.98v-1.69c0-.8.48-1.54 1.23-1.84 1.75-.7 3.36-1.64 4.81-2.79.64-.5 1.52-.56 2.22-.15l1.46.85c.84.48 1.9.31 2.53-.43a23.431 23.431 0 0 0 2.76-3.99c.63-1.14 1.18-2.33 1.61-3.57.32-.91-.05-1.92-.89-2.4z"/>
</svg>
