<svg xmlns="http://www.w3.org/2000/svg" width="8" height="12" viewBox="0 0 8 12">
    <path fill="#C5C5C5" fill-rule="evenodd" d="M5.778 5.375H2.222V3.708c0-.918.798-1.666 1.778-1.666s1.778.748 1.778 1.666v1.667zM4 9.021c-.491 0-.889-.373-.889-.834 0-.46.398-.833.889-.833s.889.373.889.833c0 .46-.398.834-.889.834zm2.889-3.646V3.708C6.889 2.212 5.596 1 4 1 2.404 1 1.111 2.212 1.111 3.708v1.667C.498 5.375 0 5.842 0 6.417v3.541C0 10.533.498 11 1.111 11H6.89C7.502 11 8 10.533 8 9.958V6.417c0-.575-.498-1.042-1.111-1.042z"/>
</svg>
