<svg xmlns="http://www.w3.org/2000/svg" width="8" height="12" viewBox="0 0 8 12">
    <path fill="#FFF" fill-rule="evenodd" d="M4.308 4.99a.422.422 0 0 1-.616 0L2.34 3.572c-.276-.289-.08-.781.31-.781h2.7c.39 0 .586.492.31.781L4.308 4.99zm1.66 4.218a.45.45 0 0 1 .438.459v.229a.45.45 0 0 1-.437.458H2.03a.45.45 0 0 1-.437-.458v-.23a.45.45 0 0 1 .437-.458H5.97zm1.213-5.623c.203-.214.319-.505.319-.81v-1.13C7.5 1.014 7.01.5 6.406.5H1.594C.99.5.5 1.013.5 1.646v1.13c0 .304.116.595.32.809l1.997 2.092c.17.179.17.467 0 .646L.819 8.415C.616 8.63.5 8.92.5 9.225v1.13c0 .632.49 1.145 1.094 1.145h4.812c.604 0 1.094-.513 1.094-1.146v-1.13c0-.304-.116-.595-.32-.809L5.184 6.323a.472.472 0 0 1 0-.646l1.998-2.092z"/>
</svg>
