<svg xmlns="http://www.w3.org/2000/svg" width="20" height="20" viewBox="0 0 20 20">
    <path fill="#C5C5C5" fill-rule="evenodd" d="M14.286 8.81H5.714a.955.955 0 0 1-.952-.953c0-.524.428-.952.952-.952h8.572c.524 0 .952.428.952.952a.955.955 0 0 1-.952.953zm-2.381 4.285h-6.19a.955.955 0 0 1-.953-.952c0-.524.428-.953.952-.953h6.19c.525 0 .953.429.953.953a.955.955 0 0 1-.952.952zM10 0C4.476 0 0 4.476 0 10c0 1.948.567 3.757 1.529 5.295L.08 18.671c-.338.79.457 1.586 1.248 1.248l3.376-1.448A9.949 9.949 0 0 0 10 20c5.524 0 10-4.476 10-10S15.524 0 10 0z"/>
</svg>
