<svg xmlns="http://www.w3.org/2000/svg" width="20" height="20" viewBox="0 0 20 20">
    <g fill="#C5C5C5" fill-rule="evenodd">
        <path d="M8.167 17.202c-2.094-.982-4.106-1.385-6.616-1.443a1.229 1.229 0 0 1-1.208-1.224V3.833c0-.69.571-1.251 1.261-1.224 2.767.11 4.93.609 7.278 1.788.269.137.44.421.44.726v11.338a.814.814 0 0 1-1.155.741M12.11 17.202c2.094-.982 4.106-1.385 6.617-1.443a1.229 1.229 0 0 0 1.208-1.224V3.833a1.22 1.22 0 0 0-1.262-1.224c-2.767.11-4.93.609-7.273 1.788a.814.814 0 0 0-.445.726v11.338c0 .594.616.993 1.155.741"/>
    </g>
</svg>
