<svg xmlns="http://www.w3.org/2000/svg" width="20" height="20" viewBox="0 0 20 20">
    <g fill="#C5C5C5" fill-rule="evenodd">
        <path d="M6.5 6.5a2 2 0 1 1-4 0 2 2 0 0 1 4 0M6.944 9.634c-1.909.84-3.332 2.44-3.789 4.366H1.071C.48 14 0 13.533 0 12.958 0 10.773 2.014 9 4.5 9c.901 0 1.74.233 2.444.634zM17.5 6.5a2 2 0 1 1-4 0 2 2 0 0 1 4 0M16.845 14c-.457-1.925-1.88-3.527-3.789-4.366A4.932 4.932 0 0 1 15.5 9c2.486 0 4.5 1.773 4.5 3.958 0 .575-.48 1.042-1.071 1.042h-2.084zM13 6a3 3 0 1 1-6.001-.001A3 3 0 0 1 13 6"/>
        <path d="M10 10c-3.334 0-6.036 2.305-6.036 5.146 0 .747.644 1.354 1.437 1.354H14.6c.793 0 1.437-.607 1.437-1.354C16.036 12.305 13.334 10 10 10"/>
    </g>
</svg>
