<svg xmlns="http://www.w3.org/2000/svg" xmlns:xlink="http://www.w3.org/1999/xlink" width="20" height="20" viewBox="0 0 20 20">
    <defs>
        <path id="b" d="M13.375 10.75H10.75v2.625c0 .412-.338.75-.75.75a.752.752 0 0 1-.75-.75V10.75H6.625a.752.752 0 0 1-.75-.75c0-.412.338-.75.75-.75H9.25V6.625c0-.412.338-.75.75-.75s.75.338.75.75V9.25h2.625c.412 0 .75.338.75.75s-.338.75-.75.75zM10 1c-4.969 0-9 4.031-9 9s4.031 9 9 9 9-4.031 9-9-4.031-9-9-9z"/>
        <filter id="a" width="172.2%" height="172.2%" x="-36.1%" y="-30.6%" filterUnits="objectBoundingBox">
            <feOffset dy="1" in="SourceAlpha" result="shadowOffsetOuter1"/>
            <feGaussianBlur in="shadowOffsetOuter1" result="shadowBlurOuter1" stdDeviation="2"/>
            <feColorMatrix in="shadowBlurOuter1" values="0 0 0 0 0.254901961 0 0 0 0 0.250980392 0 0 0 0 0.258823529 0 0 0 0.1 0"/>
        </filter>
    </defs>
    <g fill="none" fill-rule="evenodd">
        <use fill="#000" filter="url(#a)" xlink:href="#b"/>
        <use fill="#C5C5C5" xlink:href="#b"/>
    </g>
</svg>
