<svg xmlns="http://www.w3.org/2000/svg" width="220" height="220" viewBox="0 0 220 220">
    <g fill="none" fill-rule="evenodd">
        <path fill="#FAFBFC" d="M-322-253h1440v1440H-322z"/>
        <g fill="#FFF">
            <path d="M119.623 102.636c.173.173.155.47-.039.663l-9.675 9.676a.8.8 0 0 1-.367.209l-3.142.805.805-3.14a.8.8 0 0 1 .21-.368l9.675-9.675c.194-.194.491-.212.663-.04l1.87 1.87z"/>
            <path d="M115.458 111.2v5.6a.8.8 0 0 1-.8.8h-11.2a.8.8 0 0 1-.8-.8v-11.2a.8.8 0 0 1 .8-.8h5.6a.8.8 0 0 0 .8-.8v-.8a.8.8 0 0 0-.8-.8h-8a.8.8 0 0 0-.8.8v16a.8.8 0 0 0 .8.8h16a.8.8 0 0 0 .8-.8v-8a.8.8 0 0 0-.8-.8h-.8a.8.8 0 0 0-.8.8z"/>
        </g>
    </g>
</svg>
