<svg xmlns="http://www.w3.org/2000/svg" width="20" height="20" viewBox="0 0 20 20">
    <g fill="#C5C5C5" fill-rule="evenodd">
        <path d="M8.058 5.91h10.8a1 1 0 0 0 1-1V2a1 1 0 0 0-1-1h-10.8a1 1 0 0 0-1 1v2.91a1 1 0 0 0 1 1zM8.058 12.455h10.8a1 1 0 0 0 1-1v-2.91a1 1 0 0 0-1-1h-10.8a1 1 0 0 0-1 1v2.91a1 1 0 0 0 1 1zM8.058 19h10.8a1 1 0 0 0 1-1v-2.91a1 1 0 0 0-1-1h-10.8a1 1 0 0 0-1 1V18a1 1 0 0 0 1 1zM1.658 5.91h2.8a1 1 0 0 0 1-1V2a1 1 0 0 0-1-1h-2.8a1 1 0 0 0-1 1v2.91a1 1 0 0 0 1 1zM1.658 12.455h2.8a1 1 0 0 0 1-1v-2.91a1 1 0 0 0-1-1h-2.8a1 1 0 0 0-1 1v2.91a1 1 0 0 0 1 1zM1.658 19h2.8a1 1 0 0 0 1-1v-2.91a1 1 0 0 0-1-1h-2.8a1 1 0 0 0-1 1V18a1 1 0 0 0 1 1z"/>
    </g>
</svg>
