<svg xmlns="http://www.w3.org/2000/svg" width="264" height="64" viewBox="0 0 264 64">
    <defs>
        <filter id="a" width="103.2%" height="157.5%" x="-1.6%" y="-28.8%" filterUnits="objectBoundingBox">
            <feOffset in="SourceAlpha" result="shadowOffsetOuter1"/>
            <feGaussianBlur in="shadowOffsetOuter1" result="shadowBlurOuter1" stdDeviation="6"/>
            <feColorMatrix in="shadowBlurOuter1" result="shadowMatrixOuter1" values="0 0 0 0 0.250980392 0 0 0 0 0.250980392 0 0 0 0 0.254901961 0 0 0 0.2 0"/>
            <feMerge>
                <feMergeNode in="shadowMatrixOuter1"/>
                <feMergeNode in="SourceGraphic"/>
            </feMerge>
        </filter>
    </defs>
    <g fill="none" fill-rule="evenodd" filter="url(#a)" transform="translate(-18 -8)">
        <path d="M30 20.328h39.665V60H30z"/>
        <path fill="#258EB9" d="M31.96 48.757c.08.167.164.333.248.5 7.819-8.996 20.364-18.764 34.823-19.052-.37-.665-.563-.981-1.017-1.613a19.487 19.487 0 0 0-.787-1.02c-6.267.945-22.094 4.9-33.268 21.185"/>
        <path fill="#258EB9" d="M60.473 23.38c-6.642-4.174-15.427-4.177-22.194.675-7.744 5.552-10.297 15.637-6.63 24.023 5.239-9.045 14.733-21.353 28.824-24.697M32.631 50.03c.082.14.163.281.25.42 8.315-6.743 21.82-14.883 36.675-13.19-.137-1.02-.346-1.813-.648-2.81-8.05-.28-22.615 2.045-36.277 15.58"/>
        <path fill="#258EB9" d="M33.105 50.808c.2.313.407.623.629.928 6.402 8.897 18.82 10.928 27.735 4.537a19.778 19.778 0 0 0 8.196-14.315c-7.875-.998-22.534-1.012-36.56 8.85"/>
        <path fill="#343534" d="M81.319 30.258h3.573l-.003 16.713c-.047-.004 6.948.004 6.948.004.754 1.323 1.971 2.732 2.9 3.135H81.318V30.258M109.435 40.48c0-4.497-2.61-8.29-6.914-8.29-3.52 0-6.024 2.757-6 7.38 0 4.802 2.59 8.557 6.97 8.557 2.455 0 5.944-1.683 5.944-7.646zm-16.508-.151c0-5.054 3.356-10.095 10.192-10.095 6.102 0 9.911 4.308 9.911 9.463 0 5.812-3.773 10.413-10.203 10.413-6.913 0-9.9-5.283-9.9-9.781zM119.598 39.914c0 .21.013.254.1.27h2.885c.71 0 1.14-.06 1.43-.27.867-.655 1.707-1.783 1.707-3.514 0-2.78-1.953-4.185-4.37-4.185h-1.605c-.095.003-.146.012-.146.164v7.535zm-3.6-9.656s4.494.006 5.571.006c2.128 0 3.81.289 4.913.944 1.366.813 2.496 2.334 2.496 4.38 0 2.202-1.182 4.067-3.258 5.43 1.576 2.203 3.416 4.77 5.15 6.684 1.182 1.311 1.97 1.936 2.522 2.198-.447.158-1.497.21-2.338.21-1.577 0-2.339-.31-3.284-1.254-.87-.774-3.944-5.154-4.996-6.53a.343.343 0 0 0-.315-.183l-2.755-.002c-.08 0-.106.052-.106.157v7.812h-3.6V30.258zM134.377 30.258h3.58V50.11h-3.577l-.003-19.852M142.349 50.11V31.727c0-1.364.079-1.469.236-1.469.157 0 .303.136.894.682 2.873 2.88 12.696 12.024 12.696 12.024V30.258h3.576v18.23c0 1.69-.064 1.622-.318 1.622-.34 0-13.502-12.462-13.502-12.462l-.006 12.462h-3.576M180.672 49.027c-1.522.582-4.383 1.083-6.667 1.083-3.856 0-7.053-1.24-9.032-3.596-1.32-1.544-2.258-3.722-2.258-6.482 0-4.178 2.131-6.66 4.212-7.951 2.613-1.722 5.505-1.823 7.306-1.823 2.275 0 5.464.712 6.442 1.48v3.42c-2.051-2.075-4.197-2.944-7.054-2.943-2.157 0-3.98.778-5.248 1.968-1.218 1.164-2.081 3.035-2.081 5.289 0 2.355.812 4.232 1.777 5.346 1.61 2.275 3.954 3.354 6.454 3.333.939-.007 2.042-.28 2.573-.587v-7.38h3.576v8.843M255.984 41.409v6.379c0 .311.136.379.339.365h1.979c1.944 0 4.31-.267 5.756-1.604 1.392-1.285 2.207-3.436 2.207-5.874 0-2.02-.394-3.908-1.655-5.56-1.603-2.045-3.918-2.932-6.886-2.9h-1.486c-.17 0-.254.108-.254.298v8.896zm-3.57-11.15l4.891.005c3.941.026 7.541.577 10.037 3.095 1.314 1.337 2.496 3.514 2.496 6.634 0 3.278-1.34 5.769-2.837 7.29-1.393 1.39-3.672 2.827-8.375 2.827h-6.218l.005-19.852zM192.883 30.258l4.53 12.592 5.146-11.14c.367-.786.416-1.029.59-1.029.167 0 .3.357.557.966l5.392 11.787 5.661-13.176h2.691l-7.916 18.275c-.327.854-.6 1.577-.84 1.577-.238 0-.751-1.324-.751-1.324l-5.28-11.513-5.175 11.315c-.504 1.188-.855 1.522-1.039 1.522-.15 0-.388-.522-.898-1.768l-6.48-18.084h3.812M224.907 42.167c.079 0 .105-.027.079-.105l-2.46-5.37-2.333 5.368c-.011.03-.06.107.061.107h4.653zm-5.469 1.918c-.079 0-.105.026-.132.079l-2.593 5.946h-2.697l8.011-18.517c.458-1.106.689-1.335.872-1.335.158 0 .432.146.933 1.377l8.45 18.475h-3.619l-2.72-5.907c-.027-.053-.074-.079-.152-.079l-6.353-.04zM237.505 39.914c0 .21.013.254.099.27h2.885c.71 0 1.142-.06 1.43-.27.867-.655 1.708-1.783 1.708-3.514 0-2.78-1.954-4.185-4.37-4.185h-1.605c-.095.003-.147.012-.147.164v7.535zm-3.6-9.656s4.494.006 5.571.006c2.128 0 3.81.289 4.913.944 1.366.813 2.496 2.334 2.496 4.38 0 2.202-1.182 4.067-3.258 5.43 1.577 2.203 3.416 4.77 5.15 6.684 1.182 1.311 1.97 1.936 2.522 2.198-.447.158-1.498.21-2.339.21-1.576 0-2.337-.31-3.284-1.254-.869-.774-3.943-5.154-4.995-6.53a.344.344 0 0 0-.315-.183l-2.755-.002c-.079 0-.106.052-.106.157v7.812h-3.6V30.258z"/>
    </g>
</svg>
