<svg xmlns="http://www.w3.org/2000/svg" width="20" height="20" viewBox="0 0 20 20">
    <g fill="#E7E6E6" fill-rule="evenodd">
        <path d="M6.336 15.237c1.216 0 2.2 1.005 2.2 2.245 0 1.24-.984 2.245-2.2 2.245-1.216 0-2.2-1.005-2.2-2.245 0-1.24.984-2.245 2.2-2.245M6.336 7.686c1.216 0 2.2 1.005 2.2 2.245 0 1.24-.984 2.245-2.2 2.245-1.216 0-2.2-1.005-2.2-2.245 0-1.24.984-2.245 2.2-2.245M6.336.135c1.216 0 2.2 1.005 2.2 2.245 0 1.24-.984 2.245-2.2 2.245-1.216 0-2.2-1.005-2.2-2.245 0-1.24.984-2.245 2.2-2.245M13.536 15.237c1.216 0 2.2 1.005 2.2 2.245 0 1.24-.984 2.245-2.2 2.245-1.216 0-2.2-1.005-2.2-2.245 0-1.24.984-2.245 2.2-2.245M13.536 7.686c1.216 0 2.2 1.005 2.2 2.245 0 1.24-.984 2.245-2.2 2.245-1.216 0-2.2-1.005-2.2-2.245 0-1.24.984-2.245 2.2-2.245M13.536.135c1.216 0 2.2 1.005 2.2 2.245 0 1.24-.984 2.245-2.2 2.245-1.216 0-2.2-1.005-2.2-2.245 0-1.24.984-2.245 2.2-2.245"/>
    </g>
</svg>
