<svg xmlns="http://www.w3.org/2000/svg" width="20" height="20" viewBox="0 0 20 20">
    <path fill="#1598CB" fill-rule="evenodd" d="M11.972 10.54h-1.016v2.249a.819.819 0 0 1-.817.816.819.819 0 0 1-.816-.816v-2.25H8.307c-.727 0-1.09-.88-.576-1.395l1.833-1.829a.806.806 0 0 1 1.15 0l1.833 1.829c.515.514.151 1.396-.575 1.396zm4.898-1.29a6.731 6.731 0 0 0-6.73-6.665c-3.189 0-5.85 2.216-6.552 5.187a4.897 4.897 0 0 0 1.653 9.506h10.612a4.083 4.083 0 0 0 4.082-4.081A4.073 4.073 0 0 0 16.87 9.25z"/>
</svg>
