<?xml version="1.0" encoding="UTF-8"?>
<svg width="12px" height="14px" viewBox="0 0 12 14" version="1.1" xmlns="http://www.w3.org/2000/svg" xmlns:xlink="http://www.w3.org/1999/xlink">
    <!-- Generator: Sketch 52.5 (67469) - http://www.bohemiancoding.com/sketch -->
    <title>Icon/Accepted</title>
    <desc>Created with Sketch.</desc>
    <g id="Symbols" stroke="none" stroke-width="1" fill="none" fill-rule="evenodd">
        <g id="DD---Adjust-Parameters---Date-Range-Selected" transform="translate(-141.000000, -454.000000)" fill="#C5C5C5">
            <g id="Icon/Delete_Gray" transform="translate(140.000000, 454.000000)">
                <path d="M8.82910217,10.7848039 C8.82910217,11.088652 8.58334365,11.3372549 8.28297214,11.3372549 C7.98260062,11.3372549 7.73684211,11.088652 7.73684211,10.7848039 L7.73684211,5.26029412 C7.73684211,4.95644608 7.98260062,4.70784314 8.28297214,4.70784314 C8.58334365,4.70784314 8.82910217,4.95644608 8.82910217,5.26029412 L8.82910217,10.7848039 Z M6.09845201,10.7848039 C6.09845201,11.088652 5.8526935,11.3372549 5.55232198,11.3372549 C5.25195046,11.3372549 5.00619195,11.088652 5.00619195,10.7848039 L5.00619195,5.26029412 C5.00619195,4.95644608 5.25195046,4.70784314 5.55232198,4.70784314 C5.8526935,4.70784314 6.09845201,4.95644608 6.09845201,5.26029412 L6.09845201,10.7848039 Z M11.2866873,1.66936275 L8.28297214,1.66936275 C8.28297214,0.906980392 7.6713065,0.288235294 6.91764706,0.288235294 C6.16398762,0.288235294 5.55232198,0.906980392 5.55232198,1.66936275 L2.54860681,1.66936275 C2.09531889,1.66936275 1.72941176,2.0395049 1.72941176,2.49803922 C1.72941176,2.95657353 2.09531889,3.32671569 2.54860681,3.32671569 L3.02373994,12.2405123 C3.06469969,12.9725098 3.66271207,13.5470588 4.38906502,13.5470588 L9.4462291,13.5470588 C10.172582,13.5470588 10.7705944,12.9725098 10.8115542,12.2405123 L11.2866873,3.32671569 C11.7399752,3.32671569 12.1058824,2.95657353 12.1058824,2.49803922 C12.1058824,2.0395049 11.7399752,1.66936275 11.2866873,1.66936275 Z" id="Fill-290"></path>
            </g>
        </g>
    </g>
</svg>