<svg xmlns="http://www.w3.org/2000/svg" width="20" height="20" viewBox="0 0 20 20">
    <g fill="#C5C5C5" fill-rule="evenodd">
        <path d="M18.914 4.864h-8.53a3.264 3.264 0 0 0-3.102-2.23c-1.445 0-2.67.936-3.098 2.23h-2.82C.8 4.864.342 5.318.342 5.877c0 .56.457 1.014 1.02 1.014h2.82a3.263 3.263 0 0 0 3.099 2.23 3.264 3.264 0 0 0 3.102-2.23h8.53c.564 0 1.02-.455 1.02-1.014 0-.56-.456-1.013-1.02-1.013M18.914 12.972h-2.816a3.264 3.264 0 0 0-3.102-2.23c-1.445 0-2.67.936-3.098 2.23H1.363c-.563 0-1.02.454-1.02 1.013C.343 14.545.8 15 1.363 15h8.535a3.263 3.263 0 0 0 3.098 2.23 3.264 3.264 0 0 0 3.102-2.23h2.816c.564 0 1.02-.454 1.02-1.014s-.456-1.013-1.02-1.013"/>
    </g>
</svg>
