<?xml version="1.0" encoding="UTF-8"?>
<svg width="20px" height="20px" viewBox="0 0 20 20" version="1.1" xmlns="http://www.w3.org/2000/svg" xmlns:xlink="http://www.w3.org/1999/xlink">
    <!-- Generator: Sketch 52.5 (67469) - http://www.bohemiancoding.com/sketch -->
    <title>user-blue</title>
    <desc>Created with Sketch.</desc>
    <g id="Page-1" stroke="none" stroke-width="1" fill="none" fill-rule="evenodd">
        <g id="user-blue">
            <path d="M10,0 C4.48,0 0,4.48 0,10 C0,15.52 4.48,20 10,20 C15.52,20 20,15.52 20,10 C20,4.48 15.52,0 10,0 Z" id="Path" fill="#1598CB"></path>
            <g id="Group" transform="translate(4.000000, 4.000000)">
                <g id="b-link" fill="#000000">
                    <path d="M6.643,1 L8,3.933 L10.78,4.235 C11.406,4.304 11.643,5.111 11.157,5.522 L8.943,7.39 L9.629,10.527 C9.766,11.154 9.102,11.642 8.566,11.309 L6,9.712 L3.434,11.31 C2.898,11.643 2.234,11.155 2.371,10.528 L3.057,7.391 L0.843,5.523 C0.357,5.113 0.593,4.305 1.22,4.236 L4,3.933 L5.357,1 C5.47079652,0.746895918 5.72249086,0.58409514 6,0.58409514 C6.27750914,0.58409514 6.52920348,0.746895918 6.643,1" id="b"></path>
                </g>
                <g id="b-link" fill="#FFFFFF">
                    <path d="M6.643,1 L8,3.933 L10.78,4.235 C11.406,4.304 11.643,5.111 11.157,5.522 L8.943,7.39 L9.629,10.527 C9.766,11.154 9.102,11.642 8.566,11.309 L6,9.712 L3.434,11.31 C2.898,11.643 2.234,11.155 2.371,10.528 L3.057,7.391 L0.843,5.523 C0.357,5.113 0.593,4.305 1.22,4.236 L4,3.933 L5.357,1 C5.47079652,0.746895918 5.72249086,0.58409514 6,0.58409514 C6.27750914,0.58409514 6.52920348,0.746895918 6.643,1" id="b"></path>
                </g>
            </g>
        </g>
    </g>
</svg>