<?xml version="1.0" encoding="UTF-8"?>
<svg width="20px" height="20px" viewBox="0 0 20 20" version="1.1" xmlns="http://www.w3.org/2000/svg" xmlns:xlink="http://www.w3.org/1999/xlink">
    <!-- Generator: Sketch 52.5 (67469) - http://www.bohemiancoding.com/sketch -->
    <title>Icon/Arrow/Down/Gray</title>
    <desc>Created with Sketch.</desc>
    <g id="Symbols" stroke="none" stroke-width="1" fill="none" fill-rule="evenodd">
        <g id="DD---Adjust-Parameters---Date-Range-Selected" transform="translate(-465.000000, -377.000000)" fill="#C5C5C5">
            <g id="Icon/Calendar_Gray" transform="translate(465.000000, 377.000000)">
                <g id="Icon/Calendar/Gray">
                    <path d="M17.6004651,16.8976744 C17.6004651,17.1534884 17.3911628,17.3627907 17.1353488,17.3627907 L3.18186047,17.3627907 C2.92604651,17.3627907 2.71674419,17.1534884 2.71674419,16.8976744 L2.71674419,7.59534884 C2.71674419,7.33953488 2.92604651,7.13023256 3.18186047,7.13023256 L17.1353488,7.13023256 C17.3911628,7.13023256 17.6004651,7.33953488 17.6004651,7.59534884 L17.6004651,16.8976744 Z M17.6004651,2.47906977 L16.6702326,2.47906977 L16.6702326,1.54883721 C16.6702326,0.776744186 16.0469767,0.153488372 15.2748837,0.153488372 C14.5027907,0.153488372 13.8795349,0.776744186 13.8795349,1.54883721 L13.8795349,2.47906977 L6.43767442,2.47906977 L6.43767442,1.54883721 C6.43767442,0.776744186 5.8144186,0.153488372 5.04232558,0.153488372 C4.27023256,0.153488372 3.64697674,0.776744186 3.64697674,1.54883721 L3.64697674,2.47906977 L2.71674419,2.47906977 C1.43302326,2.47906977 0.391162791,3.52093023 0.391162791,4.80465116 L0.391162791,17.3627907 C0.391162791,18.6465116 1.43302326,19.6883721 2.71674419,19.6883721 L17.6004651,19.6883721 C18.884186,19.6883721 19.9260465,18.6465116 19.9260465,17.3627907 L19.9260465,4.80465116 C19.9260465,3.52093023 18.884186,2.47906977 17.6004651,2.47906977 Z" id="Fill-54"></path>
                    <path d="M6.9027907,10.3860465 C6.9027907,10.9023256 6.48604651,11.3162791 5.97255814,11.3162791 C5.45860465,11.3162791 5.04232558,10.9023256 5.04232558,10.3860465 C5.04232558,9.8744186 5.45860465,9.45581395 5.97255814,9.45581395 C6.48604651,9.45581395 6.9027907,9.8744186 6.9027907,10.3860465" id="Fill-55"></path>
                    <path d="M6.9027907,14.1069767 C6.9027907,14.6232558 6.48604651,15.0372093 5.97255814,15.0372093 C5.45860465,15.0372093 5.04232558,14.6232558 5.04232558,14.1069767 C5.04232558,13.5953488 5.45860465,13.1767442 5.97255814,13.1767442 C6.48604651,13.1767442 6.9027907,13.5953488 6.9027907,14.1069767" id="Fill-56"></path>
                    <path d="M11.0888372,10.3860465 C11.0888372,10.9023256 10.672093,11.3162791 10.1586047,11.3162791 C9.64465116,11.3162791 9.22837209,10.9023256 9.22837209,10.3860465 C9.22837209,9.8744186 9.64465116,9.45581395 10.1586047,9.45581395 C10.672093,9.45581395 11.0888372,9.8744186 11.0888372,10.3860465" id="Fill-57"></path>
                    <path d="M11.0888372,14.1069767 C11.0888372,14.6232558 10.672093,15.0372093 10.1586047,15.0372093 C9.64465116,15.0372093 9.22837209,14.6232558 9.22837209,14.1069767 C9.22837209,13.5953488 9.64465116,13.1767442 10.1586047,13.1767442 C10.672093,13.1767442 11.0888372,13.5953488 11.0888372,14.1069767" id="Fill-58"></path>
                    <path d="M15.2748837,10.3860465 C15.2748837,10.9023256 14.8581395,11.3162791 14.3446512,11.3162791 C13.8306977,11.3162791 13.4144186,10.9023256 13.4144186,10.3860465 C13.4144186,9.8744186 13.8306977,9.45581395 14.3446512,9.45581395 C14.8581395,9.45581395 15.2748837,9.8744186 15.2748837,10.3860465" id="Fill-59"></path>
                    <path d="M15.2748837,14.1069767 C15.2748837,14.6232558 14.8581395,15.0372093 14.3446512,15.0372093 C13.8306977,15.0372093 13.4144186,14.6232558 13.4144186,14.1069767 C13.4144186,13.5953488 13.8306977,13.1767442 14.3446512,13.1767442 C14.8581395,13.1767442 15.2748837,13.5953488 15.2748837,14.1069767" id="Fill-60"></path>
                </g>
            </g>
        </g>
    </g>
</svg>