<svg xmlns="http://www.w3.org/2000/svg" width="48" height="48" viewBox="0 0 48 48">
    <path fill="#C5C5C5" fill-rule="evenodd" d="M36.59 17H30c-2.76 0-5-2.24-5-5V5.41c0-.89 1.08-1.33 1.71-.7l10.58 10.58c.63.63.19 1.71-.7 1.71zm3.95-4.46L29.46 1.46C28.53.53 27.26 0 25.93 0H11C8.24 0 6 2.24 6 5v38c0 2.76 2.24 5 5 5h26c2.76 0 5-2.24 5-5V16.07c0-1.33-.53-2.6-1.46-3.53zM28.342 33.838h-2.914v2.939c0 .813-.65 1.47-1.457 1.47a1.461 1.461 0 0 1-1.457-1.47v-2.939h-2.915a1.461 1.461 0 0 1-1.457-1.47c0-.812.651-1.469 1.457-1.469h2.915V27.96c0-.813.65-1.469 1.457-1.469.806 0 1.457.656 1.457 1.47v2.938h2.914c.807 0 1.457.657 1.457 1.47s-.65 1.469-1.457 1.469zm-4.371-10.746c-5.08 0-9.2 4.153-9.2 9.277 0 5.123 4.12 9.276 9.2 9.276 5.08 0 9.2-4.153 9.2-9.276 0-5.124-4.12-9.277-9.2-9.277z"/>
</svg>
