<svg xmlns="http://www.w3.org/2000/svg" width="48" height="48" viewBox="0 0 48 48">
    <g fill="#C5C5C5" fill-rule="evenodd">
        <path d="M45.083 4.623a1.916 1.916 0 0 0-1.916 1.916v4.754C38.94 4.958 31.705 1 24 1 11.312 1 1 11.321 1 24a1.91 1.91 0 0 0 1.917 1.917A1.916 1.916 0 0 0 4.833 24C4.833 13.43 13.43 4.833 24 4.833c6.737 0 13.033 3.632 16.474 9.373H35.5a1.916 1.916 0 0 0-1.917 1.917 1.91 1.91 0 0 0 1.917 1.916h9.583A1.916 1.916 0 0 0 47 16.123V6.539a1.922 1.922 0 0 0-1.917-1.916M45.083 22.083A1.916 1.916 0 0 0 43.167 24c0 10.57-8.606 19.167-19.167 19.167-6.747 0-13.043-3.632-16.474-9.373H12.5a1.922 1.922 0 0 0 1.917-1.916A1.922 1.922 0 0 0 12.5 29.96H2.917A1.916 1.916 0 0 0 1 31.878v9.583a1.916 1.916 0 1 0 3.833 0v-4.753C9.06 43.041 16.285 47 24 47c12.679 0 23-10.321 23-23a1.922 1.922 0 0 0-1.917-1.917"/>
        <path d="M22.094 20.136c0 2.976 8.83 1.315 8.806 7.128 0 2.792-2.201 4.453-5.231 4.799v2.017a1.42 1.42 0 1 1-2.84 0v-2.063c-2.155-.3-4.214-1.2-5.729-2.446l1.491-2.976c1.705 1.477 4.119 2.423 5.87 2.423 1.54 0 2.462-.554 2.462-1.546 0-3.045-8.829-1.269-8.829-6.99 0-2.468 1.846-4.176 4.734-4.637V13.92a1.42 1.42 0 0 1 2.84 0v1.833c1.918.184 3.764.83 5.137 1.707l-1.444 3.022c-1.751-1.015-3.834-1.661-5.16-1.661-1.254 0-2.107.438-2.107 1.315z"/>
    </g>
</svg>
