<?xml version="1.0" encoding="utf-8"?>
<!-- Generator: Adobe Illustrator 16.0.0, SVG Export Plug-In . SVG Version: 6.00 Build 0)  -->
<!DOCTYPE svg PUBLIC "-//W3C//DTD SVG 1.1//EN" "http://www.w3.org/Graphics/SVG/1.1/DTD/svg11.dtd">
<svg version="1.1" id="Layer_1" xmlns="http://www.w3.org/2000/svg" xmlns:xlink="http://www.w3.org/1999/xlink" x="0px" y="0px"
	 width="8px" height="12px" viewBox="0 0 8 12" enable-background="new 0 0 8 12" xml:space="preserve">
<path fill="#FFFFFF" d="M7.855,3.828L7.154,3.141C7.061,3.048,6.934,2.997,6.803,3C6.672,2.997,6.545,3.048,6.452,3.141L3.066,6.46
	L1.548,4.97c-0.092-0.093-0.219-0.144-0.35-0.142C1.066,4.825,0.939,4.876,0.846,4.97L0.145,5.657C0.051,5.746-0.002,5.87,0,6
	c0,0.135,0.048,0.25,0.145,0.343l1.868,1.829l0.702,0.688C2.808,8.951,2.934,9.002,3.065,9c0.132,0.003,0.259-0.048,0.352-0.141
	l0.702-0.688l3.736-3.657C7.949,4.426,8.002,4.302,8,4.172C8.002,4.042,7.949,3.917,7.855,3.828z"/>
</svg>
