<svg xmlns="http://www.w3.org/2000/svg" width="20" height="20" viewBox="0 0 20 20">
    <g fill="#00AEEF" fill-rule="evenodd">
        <path d="M11.277 7.944l.711-7.43a.517.517 0 0 0-.482-.506H8.711a.514.514 0 0 0-.482.506l.723 7.433a.397.397 0 0 0 .38.319.323.323 0 0 0 .07 0 2.409 2.409 0 0 1 1.446 0 .397.397 0 0 0 .429-.322zM8.243 8.466L1.737 5.458a.5.5 0 0 0-.619.33L.255 8.571a.538.538 0 0 0 .318.65l6.95 1.588a.393.393 0 0 0 .424-.354c.002-.259.044-.515.123-.76.072-.245.181-.477.323-.686 0-.023.021-.045.029-.068a.422.422 0 0 0-.179-.476zM7.754 11.694l-4.732 5.57a.55.55 0 0 0 .106.718l2.25 1.714a.488.488 0 0 0 .685-.116l3.59-6.45a.42.42 0 0 0-.13-.495.238.238 0 0 0-.06-.035 2.545 2.545 0 0 1-1.171-.894.376.376 0 0 0-.537-.013zM10.542 13.147l3.58 6.448a.488.488 0 0 0 .685.116l2.256-1.721a.55.55 0 0 0 .108-.727l-4.737-5.57a.378.378 0 0 0-.533.026 2.536 2.536 0 0 1-1.173.899l-.06.035a.426.426 0 0 0-.126.494zM12.71 10.8l6.945-1.587a.538.538 0 0 0 .316-.648l-.858-2.785a.5.5 0 0 0-.621-.33l-6.506 3.008a.423.423 0 0 0-.172.479c0 .025.02.048.03.068.141.212.25.446.325.694.078.245.12.5.123.76a.39.39 0 0 0 .42.342z"/>
    </g>
</svg>
