<?xml version="1.0" encoding="UTF-8"?>
<svg width="10px" height="16px" viewBox="0 0 10 16" version="1.1" xmlns="http://www.w3.org/2000/svg" xmlns:xlink="http://www.w3.org/1999/xlink">
    <!-- Generator: Sketch 52.5 (67469) - http://www.bohemiancoding.com/sketch -->
    <title>Icon/Move Page/Light Gray</title>
    <desc>Created with Sketch.</desc>
    <g id="Symbols" stroke="none" stroke-width="1" fill="none" fill-rule="evenodd">
        <g id="Document-Preview/Bookmark-List/Selected" transform="translate(-287.000000, -16.000000)" fill="#FFFFFF">
            <g id="Icon/Move-Page_White" transform="translate(284.000000, 16.000000)">
                <g id="Group" transform="translate(3.200000, 0.000000)">
                    <path d="M1.8688,12.1897143 C2.8416,12.1897143 3.6288,12.9939592 3.6288,13.9856327 C3.6288,14.9776327 2.8416,15.781551 1.8688,15.781551 C0.896,15.781551 0.1088,14.9776327 0.1088,13.9856327 C0.1088,12.9939592 0.896,12.1897143 1.8688,12.1897143" id="Fill-257"></path>
                    <path d="M1.8688,6.14889796 C2.8416,6.14889796 3.6288,6.95314286 3.6288,7.94481633 C3.6288,8.93681633 2.8416,9.74073469 1.8688,9.74073469 C0.896,9.74073469 0.1088,8.93681633 0.1088,7.94481633 C0.1088,6.95314286 0.896,6.14889796 1.8688,6.14889796" id="Fill-256"></path>
                    <path d="M1.8688,0.108081633 C2.8416,0.108081633 3.6288,0.912326531 3.6288,1.904 C3.6288,2.896 2.8416,3.69991837 1.8688,3.69991837 C0.896,3.69991837 0.1088,2.896 0.1088,1.904 C0.1088,0.912326531 0.896,0.108081633 1.8688,0.108081633" id="Fill-258"></path>
                    <path d="M7.6288,12.1897143 C8.6016,12.1897143 9.3888,12.9939592 9.3888,13.9856327 C9.3888,14.9776327 8.6016,15.781551 7.6288,15.781551 C6.656,15.781551 5.8688,14.9776327 5.8688,13.9856327 C5.8688,12.9939592 6.656,12.1897143 7.6288,12.1897143" id="Fill-257"></path>
                    <path d="M7.6288,6.14889796 C8.6016,6.14889796 9.3888,6.95314286 9.3888,7.94481633 C9.3888,8.93681633 8.6016,9.74073469 7.6288,9.74073469 C6.656,9.74073469 5.8688,8.93681633 5.8688,7.94481633 C5.8688,6.95314286 6.656,6.14889796 7.6288,6.14889796" id="Fill-256"></path>
                    <path d="M7.6288,0.108081633 C8.6016,0.108081633 9.3888,0.912326531 9.3888,1.904 C9.3888,2.896 8.6016,3.69991837 7.6288,3.69991837 C6.656,3.69991837 5.8688,2.896 5.8688,1.904 C5.8688,0.912326531 6.656,0.108081633 7.6288,0.108081633" id="Fill-258"></path>
                </g>
            </g>
        </g>
    </g>
</svg>