<svg xmlns="http://www.w3.org/2000/svg" width="20" height="20" viewBox="0 0 20 20">
    <g fill="#C5C5C5" fill-rule="evenodd">
        <path d="M19.623 2.636c.173.173.155.47-.039.663L9.91 12.975a.8.8 0 0 1-.367.209l-3.142.805.805-3.14a.8.8 0 0 1 .21-.368L17.09.806c.194-.194.491-.212.663-.04l1.87 1.87z"/>
        <path d="M15.458 11.2v5.6a.8.8 0 0 1-.8.8h-11.2a.8.8 0 0 1-.8-.8V5.6a.8.8 0 0 1 .8-.8h5.6a.8.8 0 0 0 .8-.8v-.8a.8.8 0 0 0-.8-.8h-8a.8.8 0 0 0-.8.8v16a.8.8 0 0 0 .8.8h16a.8.8 0 0 0 .8-.8v-8a.8.8 0 0 0-.8-.8h-.8a.8.8 0 0 0-.8.8z"/>
    </g>
</svg>
