<?xml version="1.0" encoding="UTF-8"?>
<svg width="66px" height="66px" viewBox="0 0 66 66" version="1.1" xmlns="http://www.w3.org/2000/svg" xmlns:xlink="http://www.w3.org/1999/xlink">
    <!-- Generator: Sketch 52.5 (67469) - http://www.bohemiancoding.com/sketch -->
    <title>Icon/Add</title>
    <desc>Created with Sketch.</desc>
    <defs>
        <path d="M40.125,32.25 L32.25,32.25 L32.25,40.125 C32.25,41.3625 31.2375,42.375 30,42.375 C28.7625,42.375 27.75,41.3625 27.75,40.125 L27.75,32.25 L19.875,32.25 C18.6375,32.25 17.625,31.2375 17.625,30 C17.625,28.7625 18.6375,27.75 19.875,27.75 L27.75,27.75 L27.75,19.875 C27.75,18.6375 28.7625,17.625 30,17.625 C31.2375,17.625 32.25,18.6375 32.25,19.875 L32.25,27.75 L40.125,27.75 C41.3625,27.75 42.375,28.7625 42.375,30 C42.375,31.2375 41.3625,32.25 40.125,32.25 Z M30,3 C15.09375,3 3,15.09375 3,30 C3,44.90625 15.09375,57 30,57 C44.90625,57 57,44.90625 57,30 C57,15.09375 44.90625,3 30,3 Z" id="path-1"></path>
        <filter x="-19.4%" y="-13.9%" width="138.9%" height="138.9%" filterUnits="objectBoundingBox" id="filter-2">
            <feOffset dx="0" dy="3" in="SourceAlpha" result="shadowOffsetOuter1"></feOffset>
            <feGaussianBlur stdDeviation="3" in="shadowOffsetOuter1" result="shadowBlurOuter1"></feGaussianBlur>
            <feColorMatrix values="0 0 0 0 0.254901961   0 0 0 0 0.250980392   0 0 0 0 0.258823529  0 0 0 0.2 0" type="matrix" in="shadowBlurOuter1"></feColorMatrix>
        </filter>
    </defs>
    <g id="Prop-Gen-Screens" stroke="none" stroke-width="1" fill="none" fill-rule="evenodd">
        <g id="Home" transform="translate(-287.000000, -993.000000)">
            <g id="Icon/Add_Blue" transform="translate(290.000000, 993.000000)">
                <g id="Icon/Add">
                    <use fill="black" fill-opacity="1" filter="url(#filter-2)" xlink:href="#path-1"></use>
                    <use fill="#1598CB" fill-rule="evenodd" xlink:href="#path-1"></use>
                </g>
            </g>
        </g>
    </g>
</svg>