<svg xmlns="http://www.w3.org/2000/svg" width="16" height="21" viewBox="0 0 16 21">
    <g fill="#F79961" fill-rule="evenodd">
        <path d="M15.333 17.771v.716c0 1.111-.954 2.013-2.13 2.013H2.13C.954 20.5 0 19.598 0 18.487V3.19c0-.676.353-1.274.893-1.639-.145.277-.226.59-.226.923v15.298c0 1.112.912 2.013 2.037 2.013h10.592c1.125 0 2.037-.901 2.037-2.013z"/>
        <path d="M13.545 6.946H10.98c-1.075 0-1.947-.893-1.947-1.992V2.33c0-.354.42-.53.666-.279l4.119 4.215c.245.25.074.68-.273.68zm1.22-1.581c.362.36.568.853.568 1.37V17.18c0 1.07-.87 1.94-1.944 1.94H3.278a1.943 1.943 0 0 1-1.945-1.94V2.44c0-1.071.871-1.94 1.945-1.94h5.806c.517 0 1.011.206 1.373.566l4.309 4.299zM5.7 10.233v5.6h2.744c1.32 0 2.152-.6 2.152-1.552 0-.728-.448-1.28-1.152-1.416.592-.168.96-.64.96-1.232 0-.856-.8-1.4-2.056-1.4H5.7zm1.416 1.088h1.152c.416 0 .68.208.68.568s-.264.584-.68.584H7.116v-1.152zm0 2.176h1.152c.528 0 .856.232.856.608 0 .4-.328.632-.856.632H7.116v-1.24z"/>
    </g>
</svg>
