<svg xmlns="http://www.w3.org/2000/svg" width="20" height="20" viewBox="0 0 20 20">
    <g fill="#C5C5C5" fill-rule="evenodd">
        <path d="M5.973 13.642a2.789 2.789 0 0 0-1.628-2.534V1.336a1.163 1.163 0 1 0-2.326 0v9.772a2.788 2.788 0 0 0 0 5.069v2.369a1.163 1.163 0 1 0 2.326 0v-2.37a2.788 2.788 0 0 0 1.628-2.534M19.926 11.782a2.789 2.789 0 0 0-1.628-2.535v-7.91a1.163 1.163 0 1 0-2.325 0v7.91a2.788 2.788 0 0 0 0 5.069v4.23a1.163 1.163 0 1 0 2.325 0v-4.23a2.788 2.788 0 0 0 1.628-2.534M12.95 6.2a2.789 2.789 0 0 0-1.629-2.534v-2.33a1.163 1.163 0 1 0-2.325 0v2.33a2.788 2.788 0 0 0 0 5.069v9.81a1.163 1.163 0 1 0 2.325 0v-9.81A2.788 2.788 0 0 0 12.95 6.2"/>
    </g>
</svg>
