<svg xmlns="http://www.w3.org/2000/svg" width="20" height="20" viewBox="0 0 20 20">
    <g fill="none" fill-rule="evenodd">
        <path d="M.5.656h18.804v18.892H.5z"/>
        <path fill="#258EB9" d="M1.429 14.194c.038.08.078.158.118.238C5.254 10.148 11.2 5.497 18.056 5.36a6.477 6.477 0 0 0-.483-.769 9.275 9.275 0 0 0-.372-.486c-2.972.45-10.475 2.334-15.772 10.089"/>
        <path fill="#258EB9" d="M14.946 2.11a9.404 9.404 0 0 0-10.521.321C.754 5.075-.457 9.877 1.281 13.871 3.765 9.563 8.266 3.702 14.946 2.11M1.747 14.8c.04.067.078.134.119.2C5.808 11.79 12.21 7.913 19.253 8.72a8.027 8.027 0 0 0-.307-1.338c-3.817-.134-10.722.974-17.199 7.419"/>
        <path fill="#258EB9" d="M1.972 15.17c.095.15.193.297.298.443 3.035 4.236 8.922 5.203 13.149 2.16a9.427 9.427 0 0 0 3.885-6.817c-3.733-.475-10.683-.482-17.332 4.214"/>
    </g>
</svg>
