<svg xmlns="http://www.w3.org/2000/svg" width="20" height="20" viewBox="0 0 20 20">
    <g fill="none" fill-rule="evenodd" transform="translate(.5 .5)">
        <circle cx="9.457" cy="9.457" r="9.442" stroke="#B3282D" stroke-linejoin="round" stroke-width=".884"/>
        <path fill="#B3282D" fill-rule="nonzero" d="M5.008 14.645h.017a.54.54 0 0 0 .427-.254l.382-1.381c.077-.141.566-1.495.703-1.57l.023-.014.338 2.461a.393.393 0 0 0 .343.28.258.258 0 0 0 .248-.29l-.04-.573c-.011-.158.162-2.602.87-2.602.244 0 2.084 1.048 2.084 1.048.162 0 .265.577.427 1.055l.41 2.192a.31.31 0 0 0 .288.29.329.329 0 0 0 .301-.288l.105-2.852a.54.54 0 0 1 .311-.393l.146-.055c.149-.056.151.23.185.388l.577 2.231c.028.154.155.271.311.286a.26.26 0 0 0 .24-.3l-.682-5.863a1.77 1.77 0 0 1 .082-.542c.049-.141.49-.865.64-.897l.929.075c.18-.046.339-.15.454-.295l.325-.454a.213.213 0 0 0-.096-.35l-1.443-.427c-.15-.056-.286-.477-.997-.521-.248.032-.49.095-.722.188-.427-.669-.572.143-1.05.62-.427.622-.258.562.683.445-.133.315-.301.615-.502.892-.514.653-1.052.566-1.3.709-.213.122-2.5.092-3.24.356l-.047.013s-1.9-.76-1.796-3.655c0 0-.19-.143-.525.955 0 0-.017.437-.517.28-.31-.097 1.345 1.088.32 1.152 0 0 .81.833.513.833-.297 0 1.793.813 1.456.969-.337.156-1.383 5.58-1.383 5.58a.2.2 0 0 0 .202.278z"/>
    </g>
</svg>
